<svg xmlns="http://www.w3.org/2000/svg" xmlns:xlink="http://www.w3.org/1999/xlink" width="120" zoomAndPan="magnify" viewBox="0 0 90 30.000001" height="40" preserveAspectRatio="xMidYMid meet" version="1.0"><defs><g/><clipPath id="8991b8fb6a"><path d="M 71.125 7 L 75 7 L 75 10.882812 L 71.125 10.882812 Z M 71.125 7 " clip-rule="nonzero"/></clipPath><clipPath id="dfa5586ebf"><path d="M 83 9 L 86 9 L 86 10.882812 L 83 10.882812 Z M 83 9 " clip-rule="nonzero"/></clipPath><clipPath id="4d60e2e645"><path d="M 84 9 L 85 9 L 85 10.882812 L 84 10.882812 Z M 84 9 " clip-rule="nonzero"/></clipPath><clipPath id="4e48bbb5ef"><path d="M 85 0 L 87.09375 0 L 87.09375 2 L 85 2 Z M 85 0 " clip-rule="nonzero"/></clipPath></defs><path fill="#d9d9d9" d="M 84.046875 4.78125 L 82.90625 4.992188 L 83.5625 5.949219 L 82.605469 5.289062 L 82.394531 6.429688 L 82.1875 5.289062 L 81.230469 5.949219 L 81.886719 4.992188 L 80.746094 4.78125 L 81.886719 4.570312 L 81.230469 3.613281 L 82.1875 4.273438 L 82.394531 3.128906 L 82.605469 4.273438 L 83.5625 3.613281 L 82.90625 4.570312 Z M 84.046875 4.78125 " fill-opacity="1" fill-rule="nonzero"/><path fill="#a6a6a6" d="M 83.253906 4.78125 L 82.660156 4.890625 L 83.003906 5.386719 L 82.503906 5.046875 L 82.394531 5.640625 L 82.285156 5.046875 L 81.789062 5.386719 L 82.132812 4.890625 L 81.539062 4.78125 L 82.132812 4.671875 L 81.789062 4.175781 L 82.285156 4.515625 L 82.394531 3.921875 L 82.503906 4.515625 L 83.003906 4.175781 L 82.660156 4.671875 Z M 83.253906 4.78125 " fill-opacity="1" fill-rule="nonzero"/><g clip-path="url(#8991b8fb6a)"><path fill="#d9d9d9" d="M 74.664062 9.082031 L 73.523438 9.292969 L 74.183594 10.246094 L 73.226562 9.589844 L 73.015625 10.730469 L 72.804688 9.589844 L 71.847656 10.246094 L 72.507812 9.292969 L 71.363281 9.082031 L 72.507812 8.871094 L 71.847656 7.914062 L 72.804688 8.574219 L 73.015625 7.429688 L 73.226562 8.574219 L 74.183594 7.914062 L 73.523438 8.871094 Z M 74.664062 9.082031 " fill-opacity="1" fill-rule="nonzero"/></g><path fill="#a6a6a6" d="M 73.875 9.082031 L 73.277344 9.191406 L 73.621094 9.6875 L 73.125 9.34375 L 73.015625 9.9375 L 72.90625 9.34375 L 72.410156 9.6875 L 72.75 9.191406 L 72.15625 9.082031 L 72.75 8.972656 L 72.410156 8.472656 L 72.90625 8.816406 L 73.015625 8.222656 L 73.125 8.816406 L 73.621094 8.472656 L 73.277344 8.972656 Z M 73.875 9.082031 " fill-opacity="1" fill-rule="nonzero"/><path fill="#d9d9d9" d="M 78.191406 2.453125 L 77.597656 2.566406 L 77.941406 3.0625 L 77.445312 2.71875 L 77.335938 3.3125 L 77.226562 2.71875 L 76.726562 3.0625 L 77.070312 2.566406 L 76.476562 2.453125 L 77.070312 2.34375 L 76.726562 1.847656 L 77.226562 2.191406 L 77.335938 1.597656 L 77.445312 2.191406 L 77.941406 1.847656 L 77.597656 2.34375 Z M 78.191406 2.453125 " fill-opacity="1" fill-rule="nonzero"/><path fill="#a6a6a6" d="M 77.78125 2.453125 L 77.472656 2.511719 L 77.648438 2.769531 L 77.390625 2.59375 L 77.335938 2.902344 L 77.277344 2.59375 L 77.019531 2.769531 L 77.195312 2.511719 L 76.886719 2.453125 L 77.195312 2.398438 L 77.019531 2.140625 L 77.277344 2.316406 L 77.335938 2.007812 L 77.390625 2.316406 L 77.648438 2.140625 L 77.472656 2.398438 Z M 77.78125 2.453125 " fill-opacity="1" fill-rule="nonzero"/><path fill="#d9d9d9" d="M 79.8125 8.371094 L 79.21875 8.480469 L 79.5625 8.976562 L 79.0625 8.632812 L 78.953125 9.230469 L 78.84375 8.632812 L 78.347656 8.976562 L 78.691406 8.480469 L 78.097656 8.371094 L 78.691406 8.261719 L 78.347656 7.761719 L 78.84375 8.105469 L 78.953125 7.511719 L 79.0625 8.105469 L 79.5625 7.761719 L 79.21875 8.261719 Z M 79.8125 8.371094 " fill-opacity="1" fill-rule="nonzero"/><path fill="#a6a6a6" d="M 79.398438 8.371094 L 79.089844 8.425781 L 79.269531 8.6875 L 79.011719 8.507812 L 78.953125 8.816406 L 78.898438 8.507812 L 78.636719 8.6875 L 78.816406 8.425781 L 78.507812 8.371094 L 78.816406 8.3125 L 78.636719 8.054688 L 78.898438 8.234375 L 78.953125 7.925781 L 79.011719 8.234375 L 79.269531 8.054688 L 79.089844 8.3125 Z M 79.398438 8.371094 " fill-opacity="1" fill-rule="nonzero"/><g clip-path="url(#dfa5586ebf)"><path fill="#d9d9d9" d="M 85.332031 9.871094 L 84.738281 9.980469 L 85.078125 10.480469 L 84.582031 10.136719 L 84.472656 10.730469 L 84.363281 10.136719 L 83.867188 10.480469 L 84.207031 9.980469 L 83.613281 9.871094 L 84.207031 9.761719 L 83.867188 9.265625 L 84.363281 9.609375 L 84.472656 9.015625 L 84.582031 9.609375 L 85.078125 9.265625 L 84.738281 9.761719 Z M 85.332031 9.871094 " fill-opacity="1" fill-rule="nonzero"/></g><g clip-path="url(#4d60e2e645)"><path fill="#a6a6a6" d="M 84.917969 9.871094 L 84.609375 9.929688 L 84.789062 10.1875 L 84.53125 10.007812 L 84.472656 10.316406 L 84.414062 10.007812 L 84.15625 10.1875 L 84.335938 9.929688 L 84.027344 9.871094 L 84.335938 9.816406 L 84.15625 9.558594 L 84.414062 9.734375 L 84.472656 9.425781 L 84.53125 9.734375 L 84.789062 9.558594 L 84.609375 9.816406 Z M 84.917969 9.871094 " fill-opacity="1" fill-rule="nonzero"/></g><g clip-path="url(#4e48bbb5ef)"><path fill="#d9d9d9" d="M 87.09375 0.859375 L 86.5 0.96875 L 86.84375 1.464844 L 86.34375 1.125 L 86.234375 1.71875 L 86.125 1.125 L 85.628906 1.464844 L 85.972656 0.96875 L 85.375 0.859375 L 85.972656 0.75 L 85.628906 0.253906 L 86.125 0.59375 L 86.234375 0 L 86.34375 0.59375 L 86.84375 0.253906 L 86.5 0.75 Z M 87.09375 0.859375 " fill-opacity="1" fill-rule="nonzero"/></g><path fill="#a6a6a6" d="M 86.679688 0.859375 L 86.371094 0.917969 L 86.550781 1.175781 L 86.292969 0.996094 L 86.234375 1.304688 L 86.179688 0.996094 L 85.917969 1.175781 L 86.097656 0.917969 L 85.789062 0.859375 L 86.097656 0.800781 L 85.917969 0.542969 L 86.179688 0.722656 L 86.234375 0.414062 L 86.292969 0.722656 L 86.550781 0.542969 L 86.371094 0.800781 Z M 86.679688 0.859375 " fill-opacity="1" fill-rule="nonzero"/><g fill="#4b4b4b" fill-opacity="1"><g transform="translate(4.391317, 19.051449)"><g><path d="M 7.78125 -3.84375 C 7.539062 -3.15625 7.296875 -2.523438 7.046875 -1.953125 C 6.804688 -1.378906 6.554688 -0.847656 6.296875 -0.359375 C 6.703125 -0.390625 7.066406 -0.4375 7.390625 -0.5 C 7.722656 -0.5625 8.019531 -0.640625 8.28125 -0.734375 C 8.550781 -0.835938 8.789062 -0.957031 9 -1.09375 C 9.21875 -1.238281 9.421875 -1.410156 9.609375 -1.609375 C 9.796875 -1.804688 9.972656 -2.03125 10.140625 -2.28125 C 10.316406 -2.539062 10.5 -2.835938 10.6875 -3.171875 L 11.015625 -3.75 L 11.1875 -3.625 L 10.859375 -3.046875 C 10.648438 -2.671875 10.441406 -2.34375 10.234375 -2.0625 C 10.035156 -1.789062 9.828125 -1.550781 9.609375 -1.34375 C 9.390625 -1.132812 9.160156 -0.960938 8.921875 -0.828125 C 8.691406 -0.691406 8.4375 -0.570312 8.15625 -0.46875 C 7.875 -0.375 7.566406 -0.300781 7.234375 -0.25 C 6.910156 -0.195312 6.550781 -0.144531 6.15625 -0.09375 C 5.832031 0.476562 5.5 0.976562 5.15625 1.40625 C 4.8125 1.832031 4.453125 2.1875 4.078125 2.46875 C 3.703125 2.757812 3.304688 2.972656 2.890625 3.109375 C 2.484375 3.253906 2.046875 3.328125 1.578125 3.328125 C 1.078125 3.328125 0.6875 3.203125 0.40625 2.953125 C 0.132812 2.710938 0 2.367188 0 1.921875 C 0 1.617188 0.0976562 1.347656 0.296875 1.109375 C 0.492188 0.878906 0.800781 0.675781 1.21875 0.5 C 1.644531 0.320312 2.191406 0.171875 2.859375 0.046875 C 3.523438 -0.078125 4.332031 -0.179688 5.28125 -0.265625 C 5.457031 -0.628906 5.632812 -1.023438 5.8125 -1.453125 C 5.988281 -1.890625 6.175781 -2.367188 6.375 -2.890625 C 6.65625 -3.640625 6.898438 -4.28125 7.109375 -4.8125 C 7.316406 -5.34375 7.5 -5.796875 7.65625 -6.171875 C 7.8125 -6.554688 7.953125 -6.882812 8.078125 -7.15625 C 8.210938 -7.425781 8.34375 -7.671875 8.46875 -7.890625 C 8.664062 -8.242188 8.882812 -8.5625 9.125 -8.84375 C 9.363281 -9.132812 9.644531 -9.382812 9.96875 -9.59375 C 9.6875 -9.507812 9.398438 -9.441406 9.109375 -9.390625 C 8.828125 -9.347656 8.570312 -9.328125 8.34375 -9.328125 C 8.113281 -9.328125 7.890625 -9.347656 7.671875 -9.390625 C 7.453125 -9.429688 7.238281 -9.476562 7.03125 -9.53125 C 6.832031 -9.582031 6.644531 -9.628906 6.46875 -9.671875 C 6.289062 -9.710938 6.132812 -9.734375 6 -9.734375 C 5.84375 -9.734375 5.691406 -9.695312 5.546875 -9.625 C 5.398438 -9.550781 5.269531 -9.453125 5.15625 -9.328125 C 5.050781 -9.203125 4.96875 -9.046875 4.90625 -8.859375 C 4.84375 -8.679688 4.8125 -8.488281 4.8125 -8.28125 C 4.8125 -8.019531 4.851562 -7.800781 4.9375 -7.625 L 4.71875 -7.5 C 4.664062 -7.59375 4.625 -7.703125 4.59375 -7.828125 C 4.5625 -7.953125 4.546875 -8.09375 4.546875 -8.25 C 4.546875 -8.550781 4.597656 -8.816406 4.703125 -9.046875 C 4.816406 -9.285156 4.96875 -9.488281 5.15625 -9.65625 C 5.351562 -9.820312 5.582031 -9.945312 5.84375 -10.03125 C 6.113281 -10.125 6.40625 -10.171875 6.71875 -10.171875 C 6.863281 -10.171875 6.992188 -10.160156 7.109375 -10.140625 C 7.222656 -10.117188 7.328125 -10.09375 7.421875 -10.0625 C 7.523438 -10.039062 7.628906 -10.015625 7.734375 -9.984375 C 7.847656 -9.953125 7.972656 -9.921875 8.109375 -9.890625 C 8.253906 -9.859375 8.421875 -9.832031 8.609375 -9.8125 C 8.804688 -9.789062 9.046875 -9.78125 9.328125 -9.78125 C 9.546875 -9.78125 9.734375 -9.785156 9.890625 -9.796875 C 10.046875 -9.816406 10.195312 -9.84375 10.34375 -9.875 C 10.488281 -9.90625 10.628906 -9.941406 10.765625 -9.984375 C 10.910156 -10.035156 11.070312 -10.097656 11.25 -10.171875 L 11.25 -10.046875 C 11.125 -10.015625 11 -9.96875 10.875 -9.90625 C 10.757812 -9.851562 10.640625 -9.785156 10.515625 -9.703125 C 10.398438 -9.617188 10.285156 -9.515625 10.171875 -9.390625 C 10.054688 -9.265625 9.941406 -9.113281 9.828125 -8.9375 C 9.703125 -8.75 9.578125 -8.523438 9.453125 -8.265625 C 9.328125 -8.003906 9.1875 -7.675781 9.03125 -7.28125 C 8.882812 -6.882812 8.707031 -6.40625 8.5 -5.84375 C 8.300781 -5.289062 8.0625 -4.625 7.78125 -3.84375 Z M 1.625 3.015625 C 1.988281 3.015625 2.328125 2.96875 2.640625 2.875 C 2.953125 2.78125 3.242188 2.613281 3.515625 2.375 C 3.796875 2.144531 4.066406 1.835938 4.328125 1.453125 C 4.597656 1.066406 4.878906 0.578125 5.171875 -0.015625 C 4.734375 0.0234375 4.3125 0.0703125 3.90625 0.125 C 3.5 0.175781 3.113281 0.238281 2.75 0.3125 C 2.394531 0.382812 2.066406 0.46875 1.765625 0.5625 C 1.460938 0.664062 1.203125 0.78125 0.984375 0.90625 C 0.773438 1.039062 0.613281 1.191406 0.5 1.359375 C 0.382812 1.523438 0.328125 1.710938 0.328125 1.921875 C 0.328125 2.285156 0.441406 2.554688 0.671875 2.734375 C 0.898438 2.921875 1.21875 3.015625 1.625 3.015625 Z M 1.625 3.015625 "/></g></g></g><g fill="#4b4b4b" fill-opacity="1"><g transform="translate(15.409942, 19.051449)"><g><path d="M 2.15625 0.125 C 1.394531 0.125 0.804688 -0.0703125 0.390625 -0.46875 C -0.015625 -0.875 -0.21875 -1.46875 -0.21875 -2.25 C -0.21875 -2.46875 -0.203125 -2.695312 -0.171875 -2.9375 C -0.140625 -3.175781 -0.09375 -3.421875 -0.03125 -3.671875 C 0.125 -4.234375 0.335938 -4.753906 0.609375 -5.234375 C 0.890625 -5.722656 1.207031 -6.140625 1.5625 -6.484375 C 1.925781 -6.835938 2.3125 -7.113281 2.71875 -7.3125 C 3.132812 -7.507812 3.550781 -7.609375 3.96875 -7.609375 C 4.382812 -7.609375 4.710938 -7.507812 4.953125 -7.3125 C 5.203125 -7.113281 5.328125 -6.832031 5.328125 -6.46875 C 5.328125 -6.269531 5.285156 -6.070312 5.203125 -5.875 C 5.117188 -5.6875 5 -5.503906 4.84375 -5.328125 C 4.695312 -5.160156 4.519531 -5 4.3125 -4.84375 C 4.101562 -4.695312 3.863281 -4.566406 3.59375 -4.453125 C 3.269531 -4.316406 2.910156 -4.210938 2.515625 -4.140625 C 2.117188 -4.078125 1.664062 -4.046875 1.15625 -4.046875 C 1.03125 -3.703125 0.929688 -3.34375 0.859375 -2.96875 C 0.796875 -2.601562 0.765625 -2.226562 0.765625 -1.84375 C 0.765625 -1.257812 0.882812 -0.835938 1.125 -0.578125 C 1.375 -0.328125 1.765625 -0.203125 2.296875 -0.203125 C 2.742188 -0.203125 3.164062 -0.285156 3.5625 -0.453125 C 3.957031 -0.617188 4.328125 -0.84375 4.671875 -1.125 C 5.015625 -1.40625 5.328125 -1.722656 5.609375 -2.078125 C 5.890625 -2.429688 6.132812 -2.796875 6.34375 -3.171875 L 6.671875 -3.75 L 6.84375 -3.625 L 6.515625 -3.046875 C 6.253906 -2.585938 5.96875 -2.160156 5.65625 -1.765625 C 5.351562 -1.378906 5.019531 -1.046875 4.65625 -0.765625 C 4.289062 -0.492188 3.898438 -0.273438 3.484375 -0.109375 C 3.066406 0.046875 2.625 0.125 2.15625 0.125 Z M 4.140625 -7.359375 C 3.878906 -7.359375 3.609375 -7.28125 3.328125 -7.125 C 3.054688 -6.96875 2.789062 -6.75 2.53125 -6.46875 C 2.269531 -6.195312 2.03125 -5.875 1.8125 -5.5 C 1.59375 -5.125 1.398438 -4.710938 1.234375 -4.265625 C 1.691406 -4.273438 2.082031 -4.316406 2.40625 -4.390625 C 2.738281 -4.460938 3.03125 -4.554688 3.28125 -4.671875 C 3.46875 -4.765625 3.65625 -4.878906 3.84375 -5.015625 C 4.03125 -5.160156 4.191406 -5.320312 4.328125 -5.5 C 4.472656 -5.6875 4.585938 -5.882812 4.671875 -6.09375 C 4.753906 -6.300781 4.796875 -6.519531 4.796875 -6.75 C 4.796875 -6.863281 4.78125 -6.957031 4.75 -7.03125 C 4.71875 -7.101562 4.671875 -7.164062 4.609375 -7.21875 C 4.546875 -7.269531 4.472656 -7.304688 4.390625 -7.328125 C 4.316406 -7.347656 4.234375 -7.359375 4.140625 -7.359375 Z M 4.140625 -7.359375 "/></g></g></g><g fill="#4b4b4b" fill-opacity="1"><g transform="translate(22.088088, 19.051449)"><g><path d="M 4.859375 -3.0625 C 4.703125 -2.601562 4.582031 -2.21875 4.5 -1.90625 C 4.425781 -1.601562 4.390625 -1.351562 4.390625 -1.15625 C 4.390625 -0.84375 4.457031 -0.601562 4.59375 -0.4375 C 4.738281 -0.28125 4.941406 -0.203125 5.203125 -0.203125 C 5.472656 -0.203125 5.742188 -0.273438 6.015625 -0.421875 C 6.296875 -0.566406 6.566406 -0.769531 6.828125 -1.03125 C 7.085938 -1.300781 7.332031 -1.613281 7.5625 -1.96875 C 7.789062 -2.332031 7.988281 -2.722656 8.15625 -3.140625 C 8.3125 -3.535156 8.4375 -3.941406 8.53125 -4.359375 C 8.625 -4.773438 8.671875 -5.203125 8.671875 -5.640625 C 8.671875 -5.960938 8.648438 -6.21875 8.609375 -6.40625 C 8.566406 -6.601562 8.519531 -6.753906 8.46875 -6.859375 C 8.425781 -6.972656 8.382812 -7.0625 8.34375 -7.125 C 8.300781 -7.1875 8.28125 -7.25 8.28125 -7.3125 C 8.28125 -7.382812 8.3125 -7.445312 8.375 -7.5 C 8.445312 -7.5625 8.523438 -7.59375 8.609375 -7.59375 C 8.703125 -7.59375 8.78125 -7.554688 8.84375 -7.484375 C 8.90625 -7.410156 8.957031 -7.304688 9 -7.171875 C 9.039062 -7.046875 9.070312 -6.894531 9.09375 -6.71875 C 9.113281 -6.539062 9.125 -6.351562 9.125 -6.15625 C 9.125 -5.863281 9.101562 -5.578125 9.0625 -5.296875 C 9.03125 -5.023438 8.976562 -4.753906 8.90625 -4.484375 C 8.84375 -4.222656 8.765625 -3.96875 8.671875 -3.71875 C 8.585938 -3.46875 8.5 -3.238281 8.40625 -3.03125 C 8.207031 -2.570312 7.976562 -2.148438 7.71875 -1.765625 C 7.46875 -1.378906 7.195312 -1.046875 6.90625 -0.765625 C 6.613281 -0.484375 6.304688 -0.265625 5.984375 -0.109375 C 5.671875 0.046875 5.351562 0.125 5.03125 0.125 C 4.8125 0.125 4.613281 0.0820312 4.4375 0 C 4.257812 -0.0703125 4.109375 -0.179688 3.984375 -0.328125 C 3.867188 -0.472656 3.78125 -0.644531 3.71875 -0.84375 C 3.65625 -1.050781 3.625 -1.273438 3.625 -1.515625 C 3.625 -1.578125 3.625 -1.640625 3.625 -1.703125 C 3.625 -1.773438 3.628906 -1.847656 3.640625 -1.921875 C 3.453125 -1.609375 3.242188 -1.328125 3.015625 -1.078125 C 2.796875 -0.828125 2.566406 -0.613281 2.328125 -0.4375 C 2.097656 -0.257812 1.851562 -0.117188 1.59375 -0.015625 C 1.34375 0.078125 1.097656 0.125 0.859375 0.125 C 0.628906 0.125 0.425781 0.0820312 0.25 0 C 0.0820312 -0.0703125 -0.0625 -0.179688 -0.1875 -0.328125 C -0.3125 -0.472656 -0.40625 -0.644531 -0.46875 -0.84375 C -0.53125 -1.050781 -0.5625 -1.273438 -0.5625 -1.515625 C -0.5625 -1.734375 -0.535156 -1.972656 -0.484375 -2.234375 C -0.429688 -2.503906 -0.351562 -2.78125 -0.25 -3.0625 L 1.359375 -7.484375 L 2.28125 -7.484375 L 0.6875 -3.0625 C 0.519531 -2.601562 0.394531 -2.21875 0.3125 -1.90625 C 0.238281 -1.601562 0.203125 -1.351562 0.203125 -1.15625 C 0.203125 -0.84375 0.269531 -0.601562 0.40625 -0.4375 C 0.550781 -0.28125 0.753906 -0.203125 1.015625 -0.203125 C 1.273438 -0.203125 1.546875 -0.273438 1.828125 -0.421875 C 2.109375 -0.578125 2.378906 -0.78125 2.640625 -1.03125 C 2.910156 -1.289062 3.15625 -1.59375 3.375 -1.9375 C 3.601562 -2.289062 3.785156 -2.664062 3.921875 -3.0625 L 5.53125 -7.484375 L 6.46875 -7.484375 Z M 4.859375 -3.0625 "/></g></g></g><g fill="#4b4b4b" fill-opacity="1"><g transform="translate(32.999306, 19.051449)"><g><path d="M 2.15625 0.125 C 1.394531 0.125 0.804688 -0.0703125 0.390625 -0.46875 C -0.015625 -0.875 -0.21875 -1.46875 -0.21875 -2.25 C -0.21875 -2.46875 -0.203125 -2.695312 -0.171875 -2.9375 C -0.140625 -3.175781 -0.09375 -3.421875 -0.03125 -3.671875 C 0.125 -4.234375 0.335938 -4.753906 0.609375 -5.234375 C 0.890625 -5.722656 1.207031 -6.140625 1.5625 -6.484375 C 1.925781 -6.835938 2.3125 -7.113281 2.71875 -7.3125 C 3.132812 -7.507812 3.550781 -7.609375 3.96875 -7.609375 C 4.382812 -7.609375 4.710938 -7.507812 4.953125 -7.3125 C 5.203125 -7.113281 5.328125 -6.832031 5.328125 -6.46875 C 5.328125 -6.269531 5.285156 -6.070312 5.203125 -5.875 C 5.117188 -5.6875 5 -5.503906 4.84375 -5.328125 C 4.695312 -5.160156 4.519531 -5 4.3125 -4.84375 C 4.101562 -4.695312 3.863281 -4.566406 3.59375 -4.453125 C 3.269531 -4.316406 2.910156 -4.210938 2.515625 -4.140625 C 2.117188 -4.078125 1.664062 -4.046875 1.15625 -4.046875 C 1.03125 -3.703125 0.929688 -3.34375 0.859375 -2.96875 C 0.796875 -2.601562 0.765625 -2.226562 0.765625 -1.84375 C 0.765625 -1.257812 0.882812 -0.835938 1.125 -0.578125 C 1.375 -0.328125 1.765625 -0.203125 2.296875 -0.203125 C 2.742188 -0.203125 3.164062 -0.285156 3.5625 -0.453125 C 3.957031 -0.617188 4.328125 -0.84375 4.671875 -1.125 C 5.015625 -1.40625 5.328125 -1.722656 5.609375 -2.078125 C 5.890625 -2.429688 6.132812 -2.796875 6.34375 -3.171875 L 6.671875 -3.75 L 6.84375 -3.625 L 6.515625 -3.046875 C 6.253906 -2.585938 5.96875 -2.160156 5.65625 -1.765625 C 5.351562 -1.378906 5.019531 -1.046875 4.65625 -0.765625 C 4.289062 -0.492188 3.898438 -0.273438 3.484375 -0.109375 C 3.066406 0.046875 2.625 0.125 2.15625 0.125 Z M 4.140625 -7.359375 C 3.878906 -7.359375 3.609375 -7.28125 3.328125 -7.125 C 3.054688 -6.96875 2.789062 -6.75 2.53125 -6.46875 C 2.269531 -6.195312 2.03125 -5.875 1.8125 -5.5 C 1.59375 -5.125 1.398438 -4.710938 1.234375 -4.265625 C 1.691406 -4.273438 2.082031 -4.316406 2.40625 -4.390625 C 2.738281 -4.460938 3.03125 -4.554688 3.28125 -4.671875 C 3.46875 -4.765625 3.65625 -4.878906 3.84375 -5.015625 C 4.03125 -5.160156 4.191406 -5.320312 4.328125 -5.5 C 4.472656 -5.6875 4.585938 -5.882812 4.671875 -6.09375 C 4.753906 -6.300781 4.796875 -6.519531 4.796875 -6.75 C 4.796875 -6.863281 4.78125 -6.957031 4.75 -7.03125 C 4.71875 -7.101562 4.671875 -7.164062 4.609375 -7.21875 C 4.546875 -7.269531 4.472656 -7.304688 4.390625 -7.328125 C 4.316406 -7.347656 4.234375 -7.359375 4.140625 -7.359375 Z M 4.140625 -7.359375 "/></g></g></g><g fill="#4b4b4b" fill-opacity="1"><g transform="translate(39.677452, 19.051449)"><g><path d="M 2.578125 -10.8125 L 3.515625 -10.8125 L 0.6875 -3.0625 C 0.625 -2.894531 0.5625 -2.726562 0.5 -2.5625 C 0.445312 -2.394531 0.398438 -2.226562 0.359375 -2.0625 C 0.316406 -1.894531 0.28125 -1.734375 0.25 -1.578125 C 0.21875 -1.421875 0.203125 -1.28125 0.203125 -1.15625 C 0.203125 -0.863281 0.28125 -0.628906 0.4375 -0.453125 C 0.59375 -0.285156 0.832031 -0.203125 1.15625 -0.203125 C 1.4375 -0.203125 1.707031 -0.257812 1.96875 -0.375 C 2.238281 -0.5 2.5 -0.679688 2.75 -0.921875 C 3.007812 -1.171875 3.269531 -1.484375 3.53125 -1.859375 C 3.789062 -2.234375 4.066406 -2.671875 4.359375 -3.171875 L 4.6875 -3.75 L 4.859375 -3.625 L 4.515625 -3.046875 C 4.210938 -2.503906 3.921875 -2.03125 3.640625 -1.625 C 3.359375 -1.226562 3.078125 -0.898438 2.796875 -0.640625 C 2.515625 -0.390625 2.226562 -0.195312 1.9375 -0.0625 C 1.65625 0.0625 1.347656 0.125 1.015625 0.125 C 0.753906 0.125 0.523438 0.0820312 0.328125 0 C 0.140625 -0.0703125 -0.0195312 -0.179688 -0.15625 -0.328125 C -0.289062 -0.472656 -0.390625 -0.644531 -0.453125 -0.84375 C -0.523438 -1.050781 -0.5625 -1.273438 -0.5625 -1.515625 C -0.5625 -1.734375 -0.535156 -1.972656 -0.484375 -2.234375 C -0.429688 -2.492188 -0.351562 -2.769531 -0.25 -3.0625 Z M 2.578125 -10.8125 "/></g></g></g><g fill="#4b4b4b" fill-opacity="1"><g transform="translate(44.352786, 19.051449)"><g><path d="M 1.359375 -7.484375 L 2.296875 -7.484375 L 0.6875 -3.0625 C 0.625 -2.894531 0.5625 -2.726562 0.5 -2.5625 C 0.445312 -2.394531 0.394531 -2.226562 0.34375 -2.0625 C 0.300781 -1.894531 0.265625 -1.734375 0.234375 -1.578125 C 0.210938 -1.421875 0.203125 -1.28125 0.203125 -1.15625 C 0.203125 -0.863281 0.28125 -0.628906 0.4375 -0.453125 C 0.59375 -0.285156 0.832031 -0.203125 1.15625 -0.203125 C 1.4375 -0.203125 1.707031 -0.257812 1.96875 -0.375 C 2.226562 -0.5 2.484375 -0.6875 2.734375 -0.9375 C 2.992188 -1.1875 3.253906 -1.492188 3.515625 -1.859375 C 3.785156 -2.234375 4.0625 -2.671875 4.34375 -3.171875 L 4.6875 -3.734375 L 6.046875 -7.484375 L 6.984375 -7.484375 L 4 0.703125 C 3.6875 1.554688 3.226562 2.207031 2.625 2.65625 C 2.019531 3.101562 1.300781 3.328125 0.46875 3.328125 C 0.0507812 3.328125 -0.289062 3.269531 -0.5625 3.15625 C -0.832031 3.050781 -1.050781 2.878906 -1.21875 2.640625 C -1.300781 2.523438 -1.363281 2.40625 -1.40625 2.28125 C -1.445312 2.15625 -1.46875 2.03125 -1.46875 1.90625 C -1.46875 1.71875 -1.414062 1.566406 -1.3125 1.453125 C -1.21875 1.335938 -1.082031 1.28125 -0.90625 1.28125 C -0.757812 1.28125 -0.644531 1.320312 -0.5625 1.40625 C -0.476562 1.488281 -0.4375 1.601562 -0.4375 1.75 C -0.4375 1.882812 -0.472656 1.992188 -0.546875 2.078125 C -0.617188 2.160156 -0.707031 2.203125 -0.8125 2.203125 C -0.863281 2.203125 -0.898438 2.191406 -0.921875 2.171875 C -0.953125 2.160156 -0.984375 2.15625 -1.015625 2.15625 C -1.046875 2.15625 -1.0625 2.160156 -1.0625 2.171875 C -1.070312 2.179688 -1.078125 2.207031 -1.078125 2.25 C -1.078125 2.363281 -1.035156 2.46875 -0.953125 2.5625 C -0.878906 2.664062 -0.773438 2.753906 -0.640625 2.828125 C -0.503906 2.898438 -0.34375 2.957031 -0.15625 3 C 0.0195312 3.039062 0.21875 3.0625 0.4375 3.0625 C 0.738281 3.0625 1.019531 3.015625 1.28125 2.921875 C 1.539062 2.835938 1.773438 2.703125 1.984375 2.515625 C 2.203125 2.328125 2.394531 2.085938 2.5625 1.796875 C 2.738281 1.503906 2.898438 1.160156 3.046875 0.765625 L 4.28125 -2.640625 C 4 -2.171875 3.726562 -1.757812 3.46875 -1.40625 C 3.207031 -1.0625 2.945312 -0.773438 2.6875 -0.546875 C 2.425781 -0.316406 2.15625 -0.144531 1.875 -0.03125 C 1.601562 0.0703125 1.316406 0.125 1.015625 0.125 C 0.753906 0.125 0.523438 0.0820312 0.328125 0 C 0.128906 -0.0703125 -0.03125 -0.179688 -0.15625 -0.328125 C -0.289062 -0.472656 -0.390625 -0.644531 -0.453125 -0.84375 C -0.523438 -1.050781 -0.5625 -1.273438 -0.5625 -1.515625 C -0.5625 -1.734375 -0.535156 -1.972656 -0.484375 -2.234375 C -0.429688 -2.503906 -0.351562 -2.78125 -0.25 -3.0625 Z M 1.359375 -7.484375 "/></g></g></g><g fill="#4b4b4b" fill-opacity="1"><g transform="translate(52.831567, 19.051449)"><g/></g></g><g fill="#4b4b4b" fill-opacity="1"><g transform="translate(57.513219, 19.051449)"><g><path d="M 1.4375 -7.6875 L 2.375 -7.6875 L 1.359375 -4.90625 C 1.898438 -5.8125 2.4375 -6.488281 2.96875 -6.9375 C 3.5 -7.382812 4.039062 -7.609375 4.59375 -7.609375 C 4.851562 -7.609375 5.070312 -7.554688 5.25 -7.453125 C 5.4375 -7.359375 5.585938 -7.226562 5.703125 -7.0625 C 5.828125 -6.894531 5.914062 -6.695312 5.96875 -6.46875 C 6.019531 -6.238281 6.046875 -5.988281 6.046875 -5.71875 C 6.046875 -5.4375 6.015625 -5.128906 5.953125 -4.796875 C 5.898438 -4.460938 5.820312 -4.128906 5.71875 -3.796875 C 5.5 -3.140625 5.21875 -2.566406 4.875 -2.078125 C 4.53125 -1.585938 4.15625 -1.175781 3.75 -0.84375 C 3.34375 -0.519531 2.921875 -0.273438 2.484375 -0.109375 C 2.054688 0.046875 1.644531 0.125 1.25 0.125 C 1.03125 0.125 0.84375 0.0976562 0.6875 0.046875 C 0.539062 -0.00390625 0.414062 -0.0820312 0.3125 -0.1875 C 0.21875 -0.300781 0.144531 -0.441406 0.09375 -0.609375 C 0.0507812 -0.785156 0.0234375 -0.992188 0.015625 -1.234375 L -1.640625 3.328125 L -2.578125 3.328125 Z M 4.375 -7.296875 C 4.15625 -7.296875 3.925781 -7.226562 3.6875 -7.09375 C 3.445312 -6.96875 3.207031 -6.796875 2.96875 -6.578125 C 2.738281 -6.359375 2.507812 -6.101562 2.28125 -5.8125 C 2.0625 -5.519531 1.847656 -5.207031 1.640625 -4.875 C 1.441406 -4.550781 1.253906 -4.21875 1.078125 -3.875 C 0.910156 -3.53125 0.765625 -3.191406 0.640625 -2.859375 C 0.523438 -2.535156 0.429688 -2.226562 0.359375 -1.9375 C 0.285156 -1.644531 0.25 -1.394531 0.25 -1.1875 C 0.25 -1.03125 0.265625 -0.890625 0.296875 -0.765625 C 0.335938 -0.640625 0.394531 -0.53125 0.46875 -0.4375 C 0.539062 -0.34375 0.628906 -0.265625 0.734375 -0.203125 C 0.847656 -0.148438 0.984375 -0.125 1.140625 -0.125 C 1.347656 -0.125 1.59375 -0.179688 1.875 -0.296875 C 2.15625 -0.410156 2.453125 -0.601562 2.765625 -0.875 C 3.078125 -1.144531 3.390625 -1.507812 3.703125 -1.96875 C 4.023438 -2.4375 4.320312 -3.023438 4.59375 -3.734375 C 4.6875 -3.972656 4.769531 -4.207031 4.84375 -4.4375 C 4.914062 -4.675781 4.976562 -4.90625 5.03125 -5.125 C 5.082031 -5.34375 5.117188 -5.546875 5.140625 -5.734375 C 5.171875 -5.921875 5.1875 -6.085938 5.1875 -6.234375 C 5.1875 -6.566406 5.117188 -6.828125 4.984375 -7.015625 C 4.859375 -7.203125 4.65625 -7.296875 4.375 -7.296875 Z M 4.375 -7.296875 "/></g></g></g><g fill="#4b4b4b" fill-opacity="1"><g transform="translate(65.328608, 19.051449)"><g><path d="M -0.03125 -3.6875 C 0.125 -4.144531 0.304688 -4.554688 0.515625 -4.921875 C 0.722656 -5.296875 0.953125 -5.628906 1.203125 -5.921875 C 1.453125 -6.210938 1.710938 -6.460938 1.984375 -6.671875 C 2.253906 -6.890625 2.523438 -7.066406 2.796875 -7.203125 C 3.066406 -7.335938 3.332031 -7.4375 3.59375 -7.5 C 3.863281 -7.570312 4.113281 -7.609375 4.34375 -7.609375 C 4.582031 -7.609375 4.78125 -7.570312 4.9375 -7.5 C 5.101562 -7.425781 5.234375 -7.320312 5.328125 -7.1875 C 5.429688 -7.050781 5.503906 -6.890625 5.546875 -6.703125 C 5.585938 -6.515625 5.609375 -6.304688 5.609375 -6.078125 L 6.109375 -7.484375 L 7.046875 -7.484375 L 5.4375 -3.0625 C 5.375 -2.894531 5.3125 -2.726562 5.25 -2.5625 C 5.195312 -2.394531 5.148438 -2.226562 5.109375 -2.0625 C 5.066406 -1.894531 5.03125 -1.734375 5 -1.578125 C 4.96875 -1.421875 4.953125 -1.28125 4.953125 -1.15625 C 4.953125 -0.863281 5.03125 -0.628906 5.1875 -0.453125 C 5.34375 -0.285156 5.582031 -0.203125 5.90625 -0.203125 C 6.1875 -0.203125 6.457031 -0.257812 6.71875 -0.375 C 6.988281 -0.5 7.253906 -0.679688 7.515625 -0.921875 C 7.773438 -1.171875 8.035156 -1.476562 8.296875 -1.84375 C 8.554688 -2.21875 8.828125 -2.660156 9.109375 -3.171875 L 9.421875 -3.75 L 9.59375 -3.625 L 9.265625 -3.046875 C 8.960938 -2.492188 8.671875 -2.019531 8.390625 -1.625 C 8.109375 -1.226562 7.828125 -0.898438 7.546875 -0.640625 C 7.265625 -0.378906 6.976562 -0.1875 6.6875 -0.0625 C 6.40625 0.0625 6.097656 0.125 5.765625 0.125 C 5.503906 0.125 5.273438 0.0820312 5.078125 0 C 4.890625 -0.0703125 4.726562 -0.179688 4.59375 -0.328125 C 4.457031 -0.472656 4.351562 -0.644531 4.28125 -0.84375 C 4.21875 -1.050781 4.1875 -1.273438 4.1875 -1.515625 C 4.1875 -1.679688 4.203125 -1.859375 4.234375 -2.046875 C 4.265625 -2.242188 4.3125 -2.445312 4.375 -2.65625 C 3.820312 -1.726562 3.273438 -1.03125 2.734375 -0.5625 C 2.191406 -0.101562 1.644531 0.125 1.09375 0.125 C 0.832031 0.125 0.609375 0.078125 0.421875 -0.015625 C 0.242188 -0.117188 0.0976562 -0.253906 -0.015625 -0.421875 C -0.140625 -0.585938 -0.226562 -0.785156 -0.28125 -1.015625 C -0.332031 -1.242188 -0.359375 -1.5 -0.359375 -1.78125 C -0.359375 -2.070312 -0.328125 -2.378906 -0.265625 -2.703125 C -0.210938 -3.035156 -0.132812 -3.363281 -0.03125 -3.6875 Z M 1.3125 -0.203125 C 1.539062 -0.203125 1.773438 -0.257812 2.015625 -0.375 C 2.253906 -0.5 2.488281 -0.664062 2.71875 -0.875 C 2.945312 -1.082031 3.171875 -1.320312 3.390625 -1.59375 C 3.617188 -1.875 3.828125 -2.171875 4.015625 -2.484375 C 4.210938 -2.804688 4.394531 -3.132812 4.5625 -3.46875 C 4.726562 -3.8125 4.867188 -4.144531 4.984375 -4.46875 C 5.109375 -4.800781 5.203125 -5.113281 5.265625 -5.40625 C 5.328125 -5.707031 5.359375 -5.972656 5.359375 -6.203125 C 5.359375 -6.421875 5.332031 -6.601562 5.28125 -6.75 C 5.226562 -6.894531 5.160156 -7.007812 5.078125 -7.09375 C 4.992188 -7.1875 4.894531 -7.253906 4.78125 -7.296875 C 4.664062 -7.335938 4.550781 -7.359375 4.4375 -7.359375 C 4.195312 -7.359375 3.929688 -7.285156 3.640625 -7.140625 C 3.359375 -6.992188 3.066406 -6.769531 2.765625 -6.46875 C 2.460938 -6.175781 2.164062 -5.800781 1.875 -5.34375 C 1.59375 -4.894531 1.332031 -4.363281 1.09375 -3.75 C 0.894531 -3.238281 0.742188 -2.765625 0.640625 -2.328125 C 0.546875 -1.898438 0.5 -1.539062 0.5 -1.25 C 0.5 -0.925781 0.5625 -0.671875 0.6875 -0.484375 C 0.820312 -0.296875 1.03125 -0.203125 1.3125 -0.203125 Z M 1.3125 -0.203125 "/></g></g></g><g fill="#4b4b4b" fill-opacity="1"><g transform="translate(74.755091, 19.051449)"><g><path d="M 4.71875 -7.03125 C 4.71875 -7.101562 4.671875 -7.171875 4.578125 -7.234375 C 4.492188 -7.304688 4.375 -7.34375 4.21875 -7.34375 C 4.039062 -7.34375 3.851562 -7.289062 3.65625 -7.1875 C 3.457031 -7.082031 3.234375 -6.898438 2.984375 -6.640625 C 2.734375 -6.378906 2.453125 -6.023438 2.140625 -5.578125 C 1.828125 -5.128906 1.472656 -4.554688 1.078125 -3.859375 L 0.765625 -3.296875 L -0.4375 0 L -1.375 0 L 1.359375 -7.484375 L 2.28125 -7.484375 L 1.1875 -4.453125 C 1.53125 -5.046875 1.84375 -5.539062 2.125 -5.9375 C 2.414062 -6.34375 2.679688 -6.671875 2.921875 -6.921875 C 3.171875 -7.171875 3.398438 -7.347656 3.609375 -7.453125 C 3.828125 -7.554688 4.039062 -7.609375 4.25 -7.609375 C 4.519531 -7.609375 4.734375 -7.523438 4.890625 -7.359375 C 5.054688 -7.191406 5.140625 -6.976562 5.140625 -6.71875 C 5.140625 -6.601562 5.125 -6.492188 5.09375 -6.390625 C 5.0625 -6.296875 5.019531 -6.210938 4.96875 -6.140625 C 4.914062 -6.078125 4.851562 -6.019531 4.78125 -5.96875 C 4.707031 -5.925781 4.625 -5.90625 4.53125 -5.90625 C 4.457031 -5.90625 4.390625 -5.914062 4.328125 -5.9375 C 4.265625 -5.957031 4.207031 -5.988281 4.15625 -6.03125 C 4.101562 -6.082031 4.0625 -6.140625 4.03125 -6.203125 C 4 -6.265625 3.984375 -6.335938 3.984375 -6.421875 C 3.984375 -6.492188 3.992188 -6.5625 4.015625 -6.625 C 4.046875 -6.695312 4.082031 -6.757812 4.125 -6.8125 C 4.164062 -6.863281 4.210938 -6.90625 4.265625 -6.9375 C 4.328125 -6.976562 4.394531 -7 4.46875 -7 C 4.507812 -7 4.550781 -6.992188 4.59375 -6.984375 C 4.601562 -6.972656 4.613281 -6.960938 4.625 -6.953125 C 4.644531 -6.953125 4.660156 -6.953125 4.671875 -6.953125 C 4.703125 -6.953125 4.71875 -6.976562 4.71875 -7.03125 Z M 4.71875 -7.03125 "/></g></g></g><g fill="#4b4b4b" fill-opacity="1"><g transform="translate(80.637167, 19.051449)"><g><path d="M -0.5 -7.484375 L 1.34375 -7.484375 L 1.953125 -9.140625 L 2.875 -9.140625 L 2.28125 -7.484375 L 4.171875 -7.484375 L 4.171875 -7.234375 L 2.1875 -7.234375 L 0.671875 -3.0625 C 0.609375 -2.894531 0.546875 -2.722656 0.484375 -2.546875 C 0.429688 -2.378906 0.382812 -2.210938 0.34375 -2.046875 C 0.300781 -1.878906 0.265625 -1.71875 0.234375 -1.5625 C 0.210938 -1.414062 0.203125 -1.28125 0.203125 -1.15625 C 0.203125 -0.863281 0.28125 -0.628906 0.4375 -0.453125 C 0.59375 -0.285156 0.832031 -0.203125 1.15625 -0.203125 C 1.46875 -0.203125 1.769531 -0.257812 2.0625 -0.375 C 2.351562 -0.488281 2.640625 -0.664062 2.921875 -0.90625 C 3.210938 -1.15625 3.5 -1.46875 3.78125 -1.84375 C 4.0625 -2.21875 4.347656 -2.660156 4.640625 -3.171875 L 4.96875 -3.75 L 5.140625 -3.625 L 4.8125 -3.046875 C 4.476562 -2.453125 4.15625 -1.953125 3.84375 -1.546875 C 3.53125 -1.148438 3.21875 -0.828125 2.90625 -0.578125 C 2.601562 -0.328125 2.296875 -0.144531 1.984375 -0.03125 C 1.671875 0.0703125 1.347656 0.125 1.015625 0.125 C 0.753906 0.125 0.523438 0.0820312 0.328125 0 C 0.128906 -0.0703125 -0.03125 -0.179688 -0.15625 -0.328125 C -0.289062 -0.472656 -0.394531 -0.644531 -0.46875 -0.84375 C -0.539062 -1.050781 -0.578125 -1.273438 -0.578125 -1.515625 C -0.578125 -1.734375 -0.550781 -1.972656 -0.5 -2.234375 C -0.445312 -2.503906 -0.367188 -2.78125 -0.265625 -3.0625 L 1.25 -7.234375 L -0.5 -7.234375 Z M -0.5 -7.484375 "/></g></g></g></svg>